<svg width="20" height="20" viewBox="0 0 20 20" fill="none" xmlns="http://www.w3.org/2000/svg">
<path d="M18.3334 13.4917C18.3334 16.5251 16.525 18.3334 13.4917 18.3334H12.5C12.0417 18.3334 11.6667 17.9584 11.6667 17.5001V12.6918C11.6667 12.4668 11.85 12.2751 12.075 12.2751L13.5417 12.2501C13.6584 12.2418 13.7584 12.1584 13.7834 12.0418L14.075 10.4501C14.1 10.3001 13.9834 10.1584 13.825 10.1584L12.05 10.1834C11.8167 10.1834 11.6334 10.0001 11.625 9.77509L11.5917 7.73341C11.5917 7.60008 11.7 7.48342 11.8417 7.48342L13.8417 7.45008C13.9833 7.45008 14.0917 7.34176 14.0917 7.20009L14.0583 5.20007C14.0583 5.05841 13.95 4.95008 13.8084 4.95008L11.5583 4.98342C10.175 5.00842 9.07503 6.14175 9.10003 7.52508L9.14169 9.81675C9.15002 10.0501 8.9667 10.2334 8.73336 10.2418L7.73335 10.2584C7.59169 10.2584 7.48336 10.3667 7.48336 10.5084L7.50836 12.0918C7.50836 12.2334 7.61668 12.3417 7.75835 12.3417L8.75836 12.3251C8.99169 12.3251 9.17501 12.5084 9.18334 12.7334L9.25834 17.4834C9.26667 17.9501 8.89167 18.3334 8.42501 18.3334H6.50835C3.47502 18.3334 1.66669 16.5251 1.66669 13.4834V6.50841C1.66669 3.47508 3.47502 1.66675 6.50835 1.66675H13.4917C16.525 1.66675 18.3334 3.47508 18.3334 6.50841V13.4917Z" fill="#101727"/>
</svg>
