<svg width="141" height="31" viewBox="0 0 141 31" fill="none" xmlns="http://www.w3.org/2000/svg">
<path d="M1.64372 24V6.96H5.81972V14.04L11.5077 6.96H16.3077L10.1877 14.52L16.6677 24H11.9877L7.45172 17.28L5.81972 19.224V24H1.64372ZM23.1102 24.288C21.7662 24.288 20.5902 24.008 19.5822 23.448C18.5742 22.888 17.7902 22.104 17.2302 21.096C16.6702 20.088 16.3902 18.904 16.3902 17.544C16.3902 16.184 16.6702 15.008 17.2302 14.016C17.7902 13.008 18.5662 12.224 19.5582 11.664C20.5662 11.088 21.7422 10.8 23.0862 10.8C24.4302 10.8 25.5902 11.088 26.5662 11.664C27.5582 12.224 28.3182 13.032 28.8462 14.088C29.3742 15.144 29.6382 16.4 29.6382 17.856V18.624H20.6622C20.7102 19.52 20.9582 20.192 21.4062 20.64C21.8702 21.072 22.4622 21.288 23.1822 21.288C23.7262 21.288 24.1822 21.184 24.5502 20.976C24.9182 20.752 25.1822 20.392 25.3422 19.896L29.4702 20.136C29.1182 21.48 28.3742 22.512 27.2382 23.232C26.1022 23.936 24.7262 24.288 23.1102 24.288ZM20.6622 16.272H25.4622C25.4302 15.424 25.1982 14.792 24.7662 14.376C24.3342 13.944 23.7742 13.728 23.0862 13.728C22.4302 13.728 21.8782 13.952 21.4302 14.4C20.9982 14.848 20.7422 15.472 20.6622 16.272ZM37.7587 24.288C36.4147 24.288 35.2387 24.008 34.2307 23.448C33.2227 22.888 32.4387 22.104 31.8787 21.096C31.3187 20.088 31.0387 18.904 31.0387 17.544C31.0387 16.184 31.3187 15.008 31.8787 14.016C32.4387 13.008 33.2147 12.224 34.2067 11.664C35.2147 11.088 36.3907 10.8 37.7347 10.8C39.0787 10.8 40.2387 11.088 41.2147 11.664C42.2067 12.224 42.9667 13.032 43.4947 14.088C44.0227 15.144 44.2867 16.4 44.2867 17.856V18.624H35.3107C35.3587 19.52 35.6067 20.192 36.0547 20.64C36.5187 21.072 37.1107 21.288 37.8307 21.288C38.3747 21.288 38.8307 21.184 39.1987 20.976C39.5667 20.752 39.8307 20.392 39.9907 19.896L44.1187 20.136C43.7667 21.48 43.0227 22.512 41.8867 23.232C40.7507 23.936 39.3747 24.288 37.7587 24.288ZM35.3107 16.272H40.1107C40.0787 15.424 39.8467 14.792 39.4147 14.376C38.9827 13.944 38.4227 13.728 37.7347 13.728C37.0787 13.728 36.5267 13.952 36.0787 14.4C35.6467 14.848 35.3907 15.472 35.3107 16.272ZM46.3351 24V11.088H50.0311L50.1991 15.048L49.6951 14.952C49.8071 13.928 50.0551 13.112 50.4391 12.504C50.8391 11.896 51.3351 11.464 51.9271 11.208C52.5191 10.936 53.1751 10.8 53.8951 10.8C54.8071 10.8 55.5911 11 56.2471 11.4C56.9191 11.784 57.4311 12.344 57.7831 13.08C58.1351 13.8 58.3111 14.672 58.3111 15.696V24H54.1831V17.112C54.1831 16.456 54.1351 15.896 54.0391 15.432C53.9431 14.968 53.7671 14.616 53.5111 14.376C53.2711 14.136 52.9191 14.016 52.4551 14.016C51.7831 14.016 51.2791 14.288 50.9431 14.832C50.6231 15.36 50.4631 16.12 50.4631 17.112V24H46.3351Z" fill="#1F2937"/>
<path d="M61.6973 24V6.96H64.8173V14.736L71.4893 6.96H75.1853L68.8013 14.448L75.5933 24H72.0173L66.7373 16.584L64.8173 18.768V24H61.6973ZM81.8842 24.288C80.6042 24.288 79.4922 24.016 78.5482 23.472C77.6042 22.912 76.8762 22.128 76.3642 21.12C75.8522 20.112 75.5962 18.936 75.5962 17.592C75.5962 16.248 75.8522 15.08 76.3642 14.088C76.8762 13.08 77.5962 12.296 78.5242 11.736C79.4682 11.176 80.5642 10.896 81.8122 10.896C83.0282 10.896 84.0922 11.168 85.0042 11.712C85.9322 12.256 86.6442 13.04 87.1402 14.064C87.6362 15.088 87.8842 16.32 87.8842 17.76V18.456H78.7882C78.8522 19.576 79.1562 20.424 79.7002 21C80.2602 21.56 80.9962 21.84 81.9082 21.84C82.5962 21.84 83.1642 21.688 83.6122 21.384C84.0762 21.064 84.3962 20.624 84.5722 20.064L87.7162 20.256C87.3642 21.504 86.6682 22.488 85.6282 23.208C84.6042 23.928 83.3562 24.288 81.8842 24.288ZM78.7882 16.392H84.7162C84.6522 15.352 84.3562 14.584 83.8282 14.088C83.3002 13.576 82.6282 13.32 81.8122 13.32C80.9962 13.32 80.3162 13.584 79.7722 14.112C79.2442 14.64 78.9162 15.4 78.7882 16.392ZM95.8295 24.288C94.5495 24.288 93.4375 24.016 92.4935 23.472C91.5495 22.912 90.8215 22.128 90.3095 21.12C89.7975 20.112 89.5415 18.936 89.5415 17.592C89.5415 16.248 89.7975 15.08 90.3095 14.088C90.8215 13.08 91.5415 12.296 92.4695 11.736C93.4135 11.176 94.5095 10.896 95.7575 10.896C96.9735 10.896 98.0375 11.168 98.9495 11.712C99.8775 12.256 100.589 13.04 101.085 14.064C101.581 15.088 101.829 16.32 101.829 17.76V18.456H92.7335C92.7975 19.576 93.1015 20.424 93.6455 21C94.2055 21.56 94.9415 21.84 95.8535 21.84C96.5415 21.84 97.1095 21.688 97.5575 21.384C98.0215 21.064 98.3415 20.624 98.5175 20.064L101.661 20.256C101.309 21.504 100.613 22.488 99.5735 23.208C98.5495 23.928 97.3015 24.288 95.8295 24.288ZM92.7335 16.392H98.6615C98.5975 15.352 98.3015 14.584 97.7735 14.088C97.2455 13.576 96.5735 13.32 95.7575 13.32C94.9415 13.32 94.2615 13.584 93.7175 14.112C93.1895 14.64 92.8615 15.4 92.7335 16.392ZM104.231 27.6V11.184H107.183L107.255 13.92L106.943 13.776C107.263 12.832 107.783 12.12 108.503 11.64C109.239 11.144 110.095 10.896 111.071 10.896C112.287 10.896 113.295 11.2 114.095 11.808C114.911 12.416 115.519 13.224 115.919 14.232C116.319 15.24 116.519 16.36 116.519 17.592C116.519 18.824 116.311 19.944 115.895 20.952C115.495 21.96 114.887 22.768 114.071 23.376C113.271 23.984 112.263 24.288 111.047 24.288C110.407 24.288 109.807 24.176 109.247 23.952C108.703 23.728 108.231 23.408 107.831 22.992C107.447 22.576 107.175 22.088 107.015 21.528L107.303 21.288V27.6H104.231ZM110.327 21.792C111.255 21.792 111.983 21.424 112.511 20.688C113.055 19.936 113.327 18.904 113.327 17.592C113.327 16.28 113.055 15.256 112.511 14.52C111.983 13.768 111.255 13.392 110.327 13.392C109.703 13.392 109.167 13.552 108.719 13.872C108.271 14.176 107.919 14.64 107.663 15.264C107.423 15.888 107.303 16.664 107.303 17.592C107.303 18.52 107.423 19.296 107.663 19.92C107.903 20.544 108.247 21.016 108.695 21.336C109.159 21.64 109.703 21.792 110.327 21.792ZM124.447 24.288C123.167 24.288 122.055 24.016 121.111 23.472C120.167 22.912 119.439 22.128 118.927 21.12C118.415 20.112 118.159 18.936 118.159 17.592C118.159 16.248 118.415 15.08 118.927 14.088C119.439 13.08 120.159 12.296 121.087 11.736C122.031 11.176 123.127 10.896 124.375 10.896C125.591 10.896 126.655 11.168 127.567 11.712C128.495 12.256 129.207 13.04 129.703 14.064C130.199 15.088 130.447 16.32 130.447 17.76V18.456H121.351C121.415 19.576 121.719 20.424 122.263 21C122.823 21.56 123.559 21.84 124.471 21.84C125.159 21.84 125.727 21.688 126.175 21.384C126.639 21.064 126.959 20.624 127.135 20.064L130.279 20.256C129.927 21.504 129.231 22.488 128.191 23.208C127.167 23.928 125.919 24.288 124.447 24.288ZM121.351 16.392H127.279C127.215 15.352 126.919 14.584 126.391 14.088C125.863 13.576 125.191 13.32 124.375 13.32C123.559 13.32 122.879 13.584 122.335 14.112C121.807 14.64 121.479 15.4 121.351 16.392ZM132.848 24V11.184H135.728L135.848 14.736L135.584 14.688C135.776 13.456 136.136 12.568 136.664 12.024C137.208 11.464 137.944 11.184 138.872 11.184H140.048V13.824H138.848C138.192 13.824 137.648 13.92 137.216 14.112C136.784 14.304 136.456 14.608 136.232 15.024C136.024 15.424 135.92 15.952 135.92 16.608V24H132.848Z" fill="#244D3F"/>
</svg>
